<svg xmlns="http://www.w3.org/2000/svg" xmlns:xlink="http://www.w3.org/1999/xlink" viewBox="0 0 1440 900" width="1400" height="900"><defs><style>.a,.d,.e,.f{fill:none;}.b{clip-path:url(#a);}.c{opacity:0.12;}.d,.e,.f{stroke:#fff;}.d{stroke-width:2px;}.f{stroke-dasharray:50;}.g{fill:#fff;}.h{clip-path:url(#b);}.i{stroke:none;}</style><clipPath id="a"><rect class="a" width="1440" height="900"/></clipPath><clipPath id="b"><rect class="a" width="840" height="2"/></clipPath></defs><g class="b"><g class="c" transform="translate(531.252 605.546) rotate(45)"><g transform="translate(0.735)"><g class="d" transform="translate(-236.194 182.92)"><circle class="i" cx="117.374" cy="117.374" r="117.374"/><circle class="a" cx="117.374" cy="117.374" r="116.374"/></g><g class="e" transform="translate(-182.196 236.918)"><circle class="i" cx="63.376" cy="63.376" r="63.376"/><circle class="a" cx="63.376" cy="63.376" r="62.876"/></g><g class="e" transform="translate(-177.367 241.747)"><circle class="i" cx="58.547" cy="58.547" r="58.547"/><circle class="a" cx="58.547" cy="58.547" r="58.047"/></g><g class="e" transform="translate(-210.63 208.484)"><circle class="i" cx="91.809" cy="91.809" r="91.809"/><circle class="a" cx="91.809" cy="91.809" r="91.309"/></g><g class="d" transform="translate(-424.557 -5.443)"><circle class="i" cx="305.737" cy="305.737" r="305.737"/><circle class="a" cx="305.737" cy="305.737" r="304.737"/></g><g class="e" transform="translate(-133.584 70.949)"><circle class="i" cx="14.764" cy="14.764" r="14.764"/><circle class="a" cx="14.764" cy="14.764" r="14.264"/></g><g class="e" transform="translate(81.4 285.53)"><circle class="i" cx="14.764" cy="14.764" r="14.764"/><circle class="a" cx="14.764" cy="14.764" r="14.264"/></g><g class="f" transform="translate(-334.054 85.06)"><circle class="i" cx="215.234" cy="215.234" r="215.234"/><circle class="a" cx="215.234" cy="215.234" r="214.734"/></g><g class="d" transform="translate(-873.483 -533.369)"><circle class="i" cx="754.662" cy="754.662" r="754.662"/><circle class="a" cx="754.662" cy="754.662" r="753.662"/></g><g class="e" transform="translate(-133.584 70.949)"><circle class="i" cx="14.764" cy="14.764" r="14.764"/><circle class="a" cx="14.764" cy="14.764" r="14.264"/></g><g class="e" transform="translate(-133.584 500.394)"><circle class="i" cx="14.764" cy="14.764" r="14.764"/><circle class="a" cx="14.764" cy="14.764" r="14.264"/></g><g class="e" transform="translate(81.4 285.53)"><circle class="i" cx="14.764" cy="14.764" r="14.764"/><circle class="a" cx="14.764" cy="14.764" r="14.264"/></g><g class="e" transform="translate(-348.045 285.53)"><circle class="i" cx="14.764" cy="14.764" r="14.764"/><circle class="a" cx="14.764" cy="14.764" r="14.264"/></g><g transform="translate(-432.129 -64.042) rotate(-45)"><line class="e" y2="134.834" transform="translate(-187.457 176.293)"/><line class="e" x1="65.723" y2="65.785" transform="translate(-187.215 110.287)"/><path class="g" d="M0,0,5,5-5.973,10.909Z" transform="translate(-190.993 302.641) rotate(-45)"/></g><line class="e" x2="20" transform="translate(-128.245 301.61)"/><g class="h" transform="translate(-73.245 300.61)"><g transform="translate(73.245 -301.61)"><line class="e" x2="92" transform="translate(-73.245 302.61)"/><line class="e" x2="20" transform="translate(53.755 302.61)"/></g><g transform="translate(255.245 -301.61)"><line class="e" x2="92" transform="translate(-73.245 302.61)"/><line class="e" x2="20" transform="translate(53.755 302.61)"/></g><g transform="translate(437.245 -301.61)"><line class="e" x2="92" transform="translate(-73.245 302.61)"/><line class="e" x2="20" transform="translate(53.755 302.61)"/></g><g transform="translate(619.245 -301.61)"><line class="e" x2="92" transform="translate(-73.245 302.61)"/><line class="e" x2="20" transform="translate(53.755 302.61)"/></g><g transform="translate(801.245 -301.61)"><line class="e" x2="92" transform="translate(-73.245 302.61)"/><line class="e" x2="20" transform="translate(53.755 302.61)"/></g></g><line class="e" x2="92" transform="translate(-255.245 301.61)"/><line class="e" x2="20" transform="translate(-310.245 301.61)"/><line class="e" x2="92" transform="translate(-437.245 301.61)"/><g transform="translate(182.659 -126.419) rotate(90)"><line class="e" x2="20" transform="translate(-128.245 301.61)"/><g class="h" transform="translate(-73.245 300.61)"><g transform="translate(73.245 -301.61)"><line class="e" x2="92" transform="translate(-73.245 302.61)"/><line class="e" x2="20" transform="translate(53.755 302.61)"/></g><g transform="translate(255.245 -301.61)"><line class="e" x2="92" transform="translate(-73.245 302.61)"/><line class="e" x2="20" transform="translate(53.755 302.61)"/></g><g transform="translate(437.245 -301.61)"><line class="e" x2="92" transform="translate(-73.245 302.61)"/><line class="e" x2="20" transform="translate(53.755 302.61)"/></g><g transform="translate(619.245 -301.61)"><line class="e" x2="92" transform="translate(-73.245 302.61)"/><line class="e" x2="20" transform="translate(53.755 302.61)"/></g><g transform="translate(801.245 -301.61)"><line class="e" x2="92" transform="translate(-73.245 302.61)"/><line class="e" x2="20" transform="translate(53.755 302.61)"/></g></g><line class="e" x2="92" transform="translate(-255.245 301.61)"/><line class="e" x2="20" transform="translate(-310.245 301.61)"/><line class="e" x2="92" transform="translate(-437.245 301.61)"/></g></g><g transform="translate(311.591 63.681) rotate(-90)"><g class="e" transform="translate(743.804 -69.082)"><circle class="i" cx="63.376" cy="63.376" r="63.376"/><circle class="a" cx="63.376" cy="63.376" r="62.876"/></g><g transform="translate(4 2)"><line class="e" x1="49" y2="49" transform="translate(816.299 -96.045)"/><line class="e" x1="54.279" transform="translate(865.299 -95.702)"/><path class="g" d="M0,0,5,5-5.973,10.909Z" transform="translate(819.799 -55.545)"/></g><line class="e" y2="18" transform="translate(816.579 -6.324) rotate(90)"/><line class="e" x1="71" transform="translate(833.579 -6.324)"/><line class="e" x1="71" transform="translate(708.579 -6.324)"/><line class="e" y2="18" transform="translate(807.579 -15.324)"/><line class="e" x1="71" transform="translate(807.579 -104.824) rotate(90)"/><line class="e" x1="71" transform="translate(807.579 22.176) rotate(90)"/><g class="e" transform="translate(790.079 -46.824)"><rect class="i" width="34" height="83" rx="17"/><rect class="a" x="0.5" y="0.5" width="33" height="82" rx="16.5"/></g></g><g transform="translate(639.454 391.071) rotate(-90)"><g class="e" transform="translate(743.804 -69.082)"><circle class="i" cx="63.376" cy="63.376" r="63.376"/><circle class="a" cx="63.376" cy="63.376" r="62.876"/></g><g transform="translate(4 2)"><line class="e" x1="49" y2="49" transform="translate(816.299 -96.045)"/><line class="e" x1="54.279" transform="translate(865.299 -95.702)"/><path class="g" d="M0,0,5,5-5.973,10.909Z" transform="translate(819.799 -55.545)"/></g><line class="e" y2="18" transform="translate(816.579 -6.324) rotate(90)"/><line class="e" x1="71" transform="translate(833.579 -6.324)"/><line class="e" x1="71" transform="translate(708.579 -6.324)"/><line class="e" y2="18" transform="translate(807.579 -15.324)"/><line class="e" x1="71" transform="translate(807.579 -104.824) rotate(90)"/><line class="e" x1="71" transform="translate(807.579 22.176) rotate(90)"/><g class="e" transform="translate(790.079 -46.824)"><rect class="i" width="34" height="83" rx="17"/><rect class="a" x="0.5" y="0.5" width="33" height="82" rx="16.5"/></g></g></g></g></svg>