<svg id="Layer_1" data-name="Layer 1" xmlns="http://www.w3.org/2000/svg" viewBox="0 0 160.82 62.13"><title>JMP_Logo_white</title><g id="Industries"><rect x="0.78" y="56.46" width="1.65" height="5.63" fill="#fff"/><polygon points="15.8 56.46 15.8 62.1 12.98 62.1 10.03 57.68 10.03 62.1 8.36 62.1 8.36 56.46 11.15 56.46 14.06 60.87 14.06 56.46 15.8 56.46" fill="#fff" fill-rule="evenodd"/><path d="M36.83,66.4A2,2,0,0,0,38.3,66a1.64,1.64,0,0,0,.27-1.08v-.84a.79.79,0,0,0-.31-.69,2.47,2.47,0,0,0-1.32-.26H34.61V66.4ZM40.36,64v.94a2.74,2.74,0,0,1-.51,1.83,3.23,3.23,0,0,1-2.49.77H32.86V61.89h4.23a4.79,4.79,0,0,1,2.48.49A1.76,1.76,0,0,1,40.36,64Z" transform="translate(-11.08 -5.42)" fill="#fff" fill-rule="evenodd"/><path d="M53.41,61.9v3.71a1.55,1.55,0,0,1-.87,1.48,5.81,5.81,0,0,1-2.65.47,6.79,6.79,0,0,1-2.69-.38,1.7,1.7,0,0,1-1-1.7V61.9H48v3.58a.69.69,0,0,0,.37.7,3,3,0,0,0,1.17.15h.56a5,5,0,0,0,1.15-.08.59.59,0,0,0,.4-.64V61.9Z" transform="translate(-11.08 -5.42)" fill="#fff" fill-rule="evenodd"/><path d="M62.09,64.14h.83a12.66,12.66,0,0,1,1.6.07,2.5,2.5,0,0,1,1.2.43,1.35,1.35,0,0,1,.47,1.1,1.61,1.61,0,0,1-.5,1.3,2.3,2.3,0,0,1-1.29.45c-.31,0-.91.05-1.8.05a14.18,14.18,0,0,1-1.76-.08A2.18,2.18,0,0,1,59.66,67a1.36,1.36,0,0,1-.43-1.11.88.88,0,0,1,0-.14.78.78,0,0,0,0-.13h1.68a1,1,0,0,0,.13.62,1.14,1.14,0,0,0,.82.21H63.1c.44,0,.72,0,.84,0a.56.56,0,0,0,.52-.61.58.58,0,0,0-.36-.58,2.78,2.78,0,0,0-.92-.1h-.74a7,7,0,0,1-2.34-.26,1.39,1.39,0,0,1-.85-1.44A1.25,1.25,0,0,1,60,62.19a7.11,7.11,0,0,1,2.7-.34,11.41,11.41,0,0,1,1.66.09,2.49,2.49,0,0,1,1.19.44A1.28,1.28,0,0,1,66,63.45v.29h-1.7c0-.34-.1-.54-.3-.62A5.48,5.48,0,0,0,62.6,63a4.29,4.29,0,0,0-1.25.12.43.43,0,0,0-.34.42c0,.25.07.41.22.48A2.28,2.28,0,0,0,62.09,64.14Z" transform="translate(-11.08 -5.42)" fill="#fff" fill-rule="evenodd"/><polygon points="66.91 56.46 66.91 57.72 64.42 57.72 64.42 62.1 62.65 62.1 62.65 57.72 60.2 57.72 60.2 56.46 66.91 56.46" fill="#fff" fill-rule="evenodd"/><path d="M87.4,64.56a2.53,2.53,0,0,0,1-.14.58.58,0,0,0,.28-.57.66.66,0,0,0-.17-.53,1.81,1.81,0,0,0-1-.19H85.2v1.43Zm.27-2.67a4.63,4.63,0,0,1,2.18.37,1.46,1.46,0,0,1,.64,1.37,1.36,1.36,0,0,1-.37,1A1.81,1.81,0,0,1,89,65.1a1.67,1.67,0,0,1,1.09.3,1.06,1.06,0,0,1,.35.85v1.27H88.62v-1.1a.52.52,0,0,0-.31-.51,2.3,2.3,0,0,0-.91-.14H85.2v1.75H83.48V61.89Z" transform="translate(-11.08 -5.42)" fill="#fff" fill-rule="evenodd"/><rect x="85.38" y="56.46" width="1.65" height="5.63" fill="#fff"/><polygon points="98.99 60.9 98.99 62.1 93.09 62.1 93.09 56.46 98.94 56.46 98.94 57.71 94.79 57.71 94.79 58.67 98.75 58.67 98.75 59.76 94.79 59.76 94.79 60.9 98.99 60.9" fill="#fff" fill-rule="evenodd"/><path d="M118.65,64.14h.84a12.77,12.77,0,0,1,1.6.07,2.5,2.5,0,0,1,1.2.43,1.34,1.34,0,0,1,.46,1.1,1.6,1.6,0,0,1-.49,1.3,2.34,2.34,0,0,1-1.3.45c-.31,0-.91.05-1.8.05a14,14,0,0,1-1.75-.08,2.18,2.18,0,0,1-1.18-.45,1.36,1.36,0,0,1-.44-1.11s0-.07,0-.14a.78.78,0,0,0,0-.13h1.67a1,1,0,0,0,.14.62,1.09,1.09,0,0,0,.81.21h1.22c.45,0,.72,0,.84,0a.55.55,0,0,0,.52-.61.58.58,0,0,0-.36-.58,2.71,2.71,0,0,0-.91-.1H119a7.07,7.07,0,0,1-2.35-.26,1.39,1.39,0,0,1-.84-1.44,1.25,1.25,0,0,1,.72-1.26,7.11,7.11,0,0,1,2.7-.34,11.26,11.26,0,0,1,1.65.09,2.58,2.58,0,0,1,1.2.44,1.3,1.3,0,0,1,.47,1.07v.29h-1.7c0-.34-.1-.54-.31-.62a5.48,5.48,0,0,0-1.39-.11,4.29,4.29,0,0,0-1.25.12.43.43,0,0,0-.33.42c0,.25.07.41.22.48A2.22,2.22,0,0,0,118.65,64.14Z" transform="translate(-11.08 -5.42)" fill="#fff" fill-rule="evenodd"/><rect x="125.79" y="56.46" width="1.65" height="5.63" fill="#fff"/><polygon points="140.81 56.46 140.81 62.1 137.99 62.1 135.04 57.68 135.04 62.1 133.38 62.1 133.38 56.46 136.17 56.46 139.07 60.87 139.07 56.46 140.81 56.46" fill="#fff" fill-rule="evenodd"/><path d="M164.84,65.39c0,.1,0,.2,0,.28s0,.16,0,.24a1.37,1.37,0,0,1-.9,1.32,5.13,5.13,0,0,1-2.07.33h-1.27a3.69,3.69,0,0,1-2.42-.61,2.13,2.13,0,0,1-.58-1.69V64.05a1.91,1.91,0,0,1,.92-1.8,4,4,0,0,1,2-.4H162a7.21,7.21,0,0,1,1.3.09,1.9,1.9,0,0,1,1,.47,1.34,1.34,0,0,1,.37.67,3.66,3.66,0,0,1,.06.77h-1.72c0-.18-.07-.31-.08-.37a.46.46,0,0,0-.27-.28,1.76,1.76,0,0,0-.46-.09c-.21,0-.49,0-.85,0h-.26c-.39,0-.7,0-.91,0a1,1,0,0,0-.52.18.73.73,0,0,0-.25.38,2.46,2.46,0,0,0-.06.63v.78a1.49,1.49,0,0,0,.26,1.06,1.75,1.75,0,0,0,1,.19h1.41a2.21,2.21,0,0,0,.75-.09.42.42,0,0,0,.3-.43v-.42Z" transform="translate(-11.08 -5.42)" fill="#fff" fill-rule="evenodd"/><rect x="159.39" y="61.05" width="1.43" height="1.03" fill="#fff"/></g><g id="Rocket"><path d="M21.09,22.94s9.3-16.65,25.83-6.59c0,0,16.27,12.7-1.5,29,0,0,22.88-11.42,4.14-31.35C49.56,14,29.62,1.45,21.09,22.94Z" transform="translate(-11.08 -5.42)" fill="#fff"/><path d="M45.75,15.26C35.41,21,21,32.36,11.63,53.64c0,0-1.83,2.24,1.22,2.24H170.51s2.85-1.22-.4-2.65l-144,.21S34.93,29.74,48,16.92" transform="translate(-11.08 -5.42)" fill="#ed2124"/><path d="M48,16.92c2.65-2.28,7.55-6,10.47-7,0,0-6.86,2.47-12.67,5.36" transform="translate(-11.08 -5.42)" fill="#ed2124"/><polygon points="46.42 3.46 49.47 3.46 47.64 6.51 56.8 0 46.42 3.46" fill="#fff"/></g><g id="JMP"><polygon points="87.21 4.07 67.48 31.73 61.58 31.73 61.58 29.3 50.18 29.3 50.18 42.72 72.77 42.72 100.03 4.07 87.21 4.07" fill="#fff"/><polygon points="103.89 3.87 76.43 42.52 89.65 42.52 103.89 22.99 103.89 37.02 114.67 23.19 114.67 42.72 126.68 42.72 126.68 3.87 117.11 3.87 114.67 7.93 114.67 3.87 103.89 3.87" fill="#fff"/><path d="M169.58,9.52v0H141l-.2,38.66h10.38V31.06h18.14a2,2,0,0,0,2-2V11.49A2,2,0,0,0,169.58,9.52Zm-9.24,12h-9.15V18.85h9.15Z" transform="translate(-11.08 -5.42)" fill="#fff"/></g></svg>